<mxfile host="Electron" modified="2023-06-15T15:17:39.815Z" agent="Mozilla/5.0 (Windows NT 10.0; Win64; x64) AppleWebKit/537.36 (KHTML, like Gecko) draw.io/21.4.0 Chrome/112.0.5615.204 Electron/24.5.1 Safari/537.36" etag="Td9lSdYvS6t7KIPxw5Ju" version="21.4.0" type="device">
  <diagram name="Page-1" id="oL0eZGH5eensEGQ6-rVe">
    <mxGraphModel dx="980" dy="566" grid="1" gridSize="10" guides="1" tooltips="1" connect="1" arrows="1" fold="1" page="1" pageScale="1" pageWidth="827" pageHeight="1169" math="0" shadow="0">
      <root>
        <mxCell id="0" />
        <mxCell id="1" parent="0" />
        <mxCell id="VjrMN6myHZ9YJszXmR57-262" style="edgeStyle=orthogonalEdgeStyle;shape=connector;rounded=0;orthogonalLoop=1;jettySize=auto;html=1;exitX=0;exitY=0.25;exitDx=0;exitDy=0;entryX=1;entryY=0.25;entryDx=0;entryDy=0;labelBackgroundColor=default;strokeColor=#7EA6E0;strokeWidth=3;fontFamily=Helvetica;fontSize=11;fontColor=default;endArrow=none;endFill=0;" edge="1" parent="1" source="VjrMN6myHZ9YJszXmR57-185" target="VjrMN6myHZ9YJszXmR57-261">
          <mxGeometry relative="1" as="geometry" />
        </mxCell>
        <mxCell id="VjrMN6myHZ9YJszXmR57-263" style="edgeStyle=orthogonalEdgeStyle;shape=connector;rounded=0;orthogonalLoop=1;jettySize=auto;html=1;exitX=1;exitY=0.25;exitDx=0;exitDy=0;entryX=1;entryY=0.75;entryDx=0;entryDy=0;labelBackgroundColor=default;strokeColor=#7EA6E0;strokeWidth=3;fontFamily=Helvetica;fontSize=11;fontColor=default;endArrow=none;endFill=0;" edge="1" parent="1" source="VjrMN6myHZ9YJszXmR57-185" target="VjrMN6myHZ9YJszXmR57-260">
          <mxGeometry relative="1" as="geometry" />
        </mxCell>
        <mxCell id="VjrMN6myHZ9YJszXmR57-185" value="" style="rounded=0;whiteSpace=wrap;html=1;fillColor=#7EA6E0;strokeColor=#7EA6E0;movable=1;resizable=1;rotatable=1;deletable=1;editable=1;locked=0;connectable=1;rotation=0;" vertex="1" parent="1">
          <mxGeometry x="260" y="590" width="60" height="28" as="geometry" />
        </mxCell>
        <mxCell id="VjrMN6myHZ9YJszXmR57-260" value="" style="rounded=0;whiteSpace=wrap;html=1;fillColor=#7EA6E0;strokeColor=#7EA6E0;movable=1;resizable=1;rotatable=1;deletable=1;editable=1;locked=0;connectable=1;rotation=60;" vertex="1" parent="1">
          <mxGeometry x="310" y="530" width="60" height="28" as="geometry" />
        </mxCell>
        <mxCell id="VjrMN6myHZ9YJszXmR57-264" style="edgeStyle=orthogonalEdgeStyle;shape=connector;rounded=0;orthogonalLoop=1;jettySize=auto;html=1;exitX=0;exitY=0.25;exitDx=0;exitDy=0;entryX=0;entryY=0.75;entryDx=0;entryDy=0;labelBackgroundColor=default;strokeColor=#7EA6E0;strokeWidth=3;fontFamily=Helvetica;fontSize=11;fontColor=default;endArrow=none;endFill=0;" edge="1" parent="1" source="VjrMN6myHZ9YJszXmR57-261" target="VjrMN6myHZ9YJszXmR57-260">
          <mxGeometry relative="1" as="geometry" />
        </mxCell>
        <mxCell id="VjrMN6myHZ9YJszXmR57-261" value="" style="rounded=0;whiteSpace=wrap;html=1;fillColor=#7EA6E0;strokeColor=#7EA6E0;movable=1;resizable=1;rotatable=1;deletable=1;editable=1;locked=0;connectable=1;rotation=-240;" vertex="1" parent="1">
          <mxGeometry x="210" y="530" width="60" height="28" as="geometry" />
        </mxCell>
        <mxCell id="VjrMN6myHZ9YJszXmR57-272" value="" style="group;flipH=0;flipV=0;rotation=-180;" vertex="1" connectable="0" parent="1">
          <mxGeometry x="312.99564434701784" y="469.99923788646686" width="154.24871130596426" height="106.98076211353316" as="geometry" />
        </mxCell>
        <mxCell id="VjrMN6myHZ9YJszXmR57-273" value="" style="rounded=0;whiteSpace=wrap;html=1;fillColor=#7EA6E0;strokeColor=#7EA6E0;movable=1;resizable=1;rotatable=1;deletable=1;editable=1;locked=0;connectable=1;rotation=-180;" vertex="1" parent="VjrMN6myHZ9YJszXmR57-272">
          <mxGeometry x="47" width="60" height="28" as="geometry" />
        </mxCell>
        <mxCell id="VjrMN6myHZ9YJszXmR57-274" value="" style="rounded=0;whiteSpace=wrap;html=1;fillColor=#7EA6E0;strokeColor=#7EA6E0;movable=1;resizable=1;rotatable=1;deletable=1;editable=1;locked=0;connectable=1;rotation=-120;" vertex="1" parent="VjrMN6myHZ9YJszXmR57-272">
          <mxGeometry x="-3" y="60" width="60" height="28" as="geometry" />
        </mxCell>
        <mxCell id="VjrMN6myHZ9YJszXmR57-275" style="edgeStyle=orthogonalEdgeStyle;shape=connector;rounded=0;orthogonalLoop=1;jettySize=auto;html=1;exitX=1;exitY=0.25;exitDx=0;exitDy=0;entryX=1;entryY=0.75;entryDx=0;entryDy=0;labelBackgroundColor=default;strokeColor=#7EA6E0;strokeWidth=3;fontFamily=Helvetica;fontSize=11;fontColor=default;endArrow=none;endFill=0;" edge="1" parent="VjrMN6myHZ9YJszXmR57-272" source="VjrMN6myHZ9YJszXmR57-273" target="VjrMN6myHZ9YJszXmR57-274">
          <mxGeometry relative="1" as="geometry" />
        </mxCell>
        <mxCell id="VjrMN6myHZ9YJszXmR57-276" style="edgeStyle=orthogonalEdgeStyle;shape=connector;rounded=0;orthogonalLoop=1;jettySize=auto;html=1;exitX=0;exitY=0.25;exitDx=0;exitDy=0;entryX=0;entryY=0.75;entryDx=0;entryDy=0;labelBackgroundColor=default;strokeColor=#7EA6E0;strokeWidth=3;fontFamily=Helvetica;fontSize=11;fontColor=default;endArrow=none;endFill=0;" edge="1" parent="VjrMN6myHZ9YJszXmR57-272" source="VjrMN6myHZ9YJszXmR57-277" target="VjrMN6myHZ9YJszXmR57-274">
          <mxGeometry relative="1" as="geometry" />
        </mxCell>
        <mxCell id="VjrMN6myHZ9YJszXmR57-277" value="" style="rounded=0;whiteSpace=wrap;html=1;fillColor=#7EA6E0;strokeColor=#7EA6E0;movable=1;resizable=1;rotatable=1;deletable=1;editable=1;locked=0;connectable=1;rotation=-420;" vertex="1" parent="VjrMN6myHZ9YJszXmR57-272">
          <mxGeometry x="97" y="60" width="60" height="28" as="geometry" />
        </mxCell>
        <mxCell id="VjrMN6myHZ9YJszXmR57-278" style="edgeStyle=orthogonalEdgeStyle;shape=connector;rounded=0;orthogonalLoop=1;jettySize=auto;html=1;exitX=0;exitY=0.25;exitDx=0;exitDy=0;entryX=1;entryY=0.25;entryDx=0;entryDy=0;labelBackgroundColor=default;strokeColor=#7EA6E0;strokeWidth=3;fontFamily=Helvetica;fontSize=11;fontColor=default;endArrow=none;endFill=0;" edge="1" parent="VjrMN6myHZ9YJszXmR57-272" source="VjrMN6myHZ9YJszXmR57-273" target="VjrMN6myHZ9YJszXmR57-277">
          <mxGeometry relative="1" as="geometry" />
        </mxCell>
        <mxCell id="VjrMN6myHZ9YJszXmR57-279" style="edgeStyle=orthogonalEdgeStyle;shape=connector;rounded=0;orthogonalLoop=1;jettySize=auto;html=1;exitX=1;exitY=0.75;exitDx=0;exitDy=0;entryX=0;entryY=0.75;entryDx=0;entryDy=0;labelBackgroundColor=default;strokeColor=#7EA6E0;strokeWidth=3;fontFamily=Helvetica;fontSize=11;fontColor=default;endArrow=none;endFill=0;" edge="1" parent="1" source="VjrMN6myHZ9YJszXmR57-273" target="VjrMN6myHZ9YJszXmR57-270">
          <mxGeometry relative="1" as="geometry" />
        </mxCell>
        <mxCell id="VjrMN6myHZ9YJszXmR57-281" value="" style="rounded=0;whiteSpace=wrap;html=1;fillColor=#7EA6E0;strokeColor=#7EA6E0;movable=1;resizable=1;rotatable=1;deletable=1;editable=1;locked=0;connectable=1;rotation=60;" vertex="1" parent="1">
          <mxGeometry x="110" y="530" width="60" height="28" as="geometry" />
        </mxCell>
        <mxCell id="VjrMN6myHZ9YJszXmR57-282" value="" style="group;flipH=0;flipV=0;rotation=-180;" vertex="1" connectable="0" parent="1">
          <mxGeometry x="112.99564434701784" y="469.99923788646686" width="154.24871130596426" height="106.98076211353316" as="geometry" />
        </mxCell>
        <mxCell id="VjrMN6myHZ9YJszXmR57-283" value="" style="rounded=0;whiteSpace=wrap;html=1;fillColor=#7EA6E0;strokeColor=#7EA6E0;movable=1;resizable=1;rotatable=1;deletable=1;editable=1;locked=0;connectable=1;rotation=-180;" vertex="1" parent="VjrMN6myHZ9YJszXmR57-282">
          <mxGeometry x="47" width="60" height="28" as="geometry" />
        </mxCell>
        <mxCell id="VjrMN6myHZ9YJszXmR57-284" value="" style="rounded=0;whiteSpace=wrap;html=1;fillColor=#7EA6E0;strokeColor=#7EA6E0;movable=1;resizable=1;rotatable=1;deletable=1;editable=1;locked=0;connectable=1;rotation=-120;" vertex="1" parent="VjrMN6myHZ9YJszXmR57-282">
          <mxGeometry x="-3" y="60" width="60" height="28" as="geometry" />
        </mxCell>
        <mxCell id="VjrMN6myHZ9YJszXmR57-285" style="edgeStyle=orthogonalEdgeStyle;shape=connector;rounded=0;orthogonalLoop=1;jettySize=auto;html=1;exitX=1;exitY=0.25;exitDx=0;exitDy=0;entryX=1;entryY=0.75;entryDx=0;entryDy=0;labelBackgroundColor=default;strokeColor=#7EA6E0;strokeWidth=3;fontFamily=Helvetica;fontSize=11;fontColor=default;endArrow=none;endFill=0;" edge="1" parent="VjrMN6myHZ9YJszXmR57-282" source="VjrMN6myHZ9YJszXmR57-283" target="VjrMN6myHZ9YJszXmR57-284">
          <mxGeometry relative="1" as="geometry" />
        </mxCell>
        <mxCell id="VjrMN6myHZ9YJszXmR57-286" style="edgeStyle=orthogonalEdgeStyle;shape=connector;rounded=0;orthogonalLoop=1;jettySize=auto;html=1;exitX=0;exitY=0.25;exitDx=0;exitDy=0;entryX=0;entryY=0.75;entryDx=0;entryDy=0;labelBackgroundColor=default;strokeColor=#7EA6E0;strokeWidth=3;fontFamily=Helvetica;fontSize=11;fontColor=default;endArrow=none;endFill=0;" edge="1" parent="VjrMN6myHZ9YJszXmR57-282" source="VjrMN6myHZ9YJszXmR57-287" target="VjrMN6myHZ9YJszXmR57-284">
          <mxGeometry relative="1" as="geometry" />
        </mxCell>
        <mxCell id="VjrMN6myHZ9YJszXmR57-287" value="" style="rounded=0;whiteSpace=wrap;html=1;fillColor=#7EA6E0;strokeColor=#7EA6E0;movable=1;resizable=1;rotatable=1;deletable=1;editable=1;locked=0;connectable=1;rotation=-420;" vertex="1" parent="VjrMN6myHZ9YJszXmR57-282">
          <mxGeometry x="97" y="60" width="60" height="28" as="geometry" />
        </mxCell>
        <mxCell id="VjrMN6myHZ9YJszXmR57-288" style="edgeStyle=orthogonalEdgeStyle;shape=connector;rounded=0;orthogonalLoop=1;jettySize=auto;html=1;exitX=0;exitY=0.25;exitDx=0;exitDy=0;entryX=1;entryY=0.25;entryDx=0;entryDy=0;labelBackgroundColor=default;strokeColor=#7EA6E0;strokeWidth=3;fontFamily=Helvetica;fontSize=11;fontColor=default;endArrow=none;endFill=0;" edge="1" parent="VjrMN6myHZ9YJszXmR57-282" source="VjrMN6myHZ9YJszXmR57-283" target="VjrMN6myHZ9YJszXmR57-287">
          <mxGeometry relative="1" as="geometry" />
        </mxCell>
        <mxCell id="VjrMN6myHZ9YJszXmR57-289" style="edgeStyle=orthogonalEdgeStyle;shape=connector;rounded=0;orthogonalLoop=1;jettySize=auto;html=1;exitX=0;exitY=0.75;exitDx=0;exitDy=0;entryX=0;entryY=0.25;entryDx=0;entryDy=0;labelBackgroundColor=default;strokeColor=#7EA6E0;strokeWidth=3;fontFamily=Helvetica;fontSize=11;fontColor=default;endArrow=none;endFill=0;" edge="1" parent="1" source="VjrMN6myHZ9YJszXmR57-283" target="VjrMN6myHZ9YJszXmR57-268">
          <mxGeometry relative="1" as="geometry" />
        </mxCell>
        <mxCell id="VjrMN6myHZ9YJszXmR57-290" style="edgeStyle=orthogonalEdgeStyle;shape=connector;rounded=0;orthogonalLoop=1;jettySize=auto;html=1;exitX=0;exitY=0.25;exitDx=0;exitDy=0;entryX=1;entryY=0.25;entryDx=0;entryDy=0;labelBackgroundColor=default;strokeColor=#7EA6E0;strokeWidth=3;fontFamily=Helvetica;fontSize=11;fontColor=default;endArrow=none;endFill=0;" edge="1" parent="1" source="VjrMN6myHZ9YJszXmR57-292" target="VjrMN6myHZ9YJszXmR57-295">
          <mxGeometry relative="1" as="geometry" />
        </mxCell>
        <mxCell id="VjrMN6myHZ9YJszXmR57-291" style="edgeStyle=orthogonalEdgeStyle;shape=connector;rounded=0;orthogonalLoop=1;jettySize=auto;html=1;exitX=1;exitY=0.25;exitDx=0;exitDy=0;entryX=1;entryY=0.75;entryDx=0;entryDy=0;labelBackgroundColor=default;strokeColor=#7EA6E0;strokeWidth=3;fontFamily=Helvetica;fontSize=11;fontColor=default;endArrow=none;endFill=0;" edge="1" parent="1" source="VjrMN6myHZ9YJszXmR57-292" target="VjrMN6myHZ9YJszXmR57-293">
          <mxGeometry relative="1" as="geometry" />
        </mxCell>
        <mxCell id="VjrMN6myHZ9YJszXmR57-292" value="" style="rounded=0;whiteSpace=wrap;html=1;fillColor=#7EA6E0;strokeColor=#7EA6E0;movable=1;resizable=1;rotatable=1;deletable=1;editable=1;locked=0;connectable=1;rotation=0;" vertex="1" parent="1">
          <mxGeometry x="160" y="469.48" width="60" height="28" as="geometry" />
        </mxCell>
        <mxCell id="VjrMN6myHZ9YJszXmR57-293" value="" style="rounded=0;whiteSpace=wrap;html=1;fillColor=#7EA6E0;strokeColor=#7EA6E0;movable=1;resizable=1;rotatable=1;deletable=1;editable=1;locked=0;connectable=1;rotation=60;" vertex="1" parent="1">
          <mxGeometry x="210" y="409.48" width="60" height="28" as="geometry" />
        </mxCell>
        <mxCell id="VjrMN6myHZ9YJszXmR57-294" style="edgeStyle=orthogonalEdgeStyle;shape=connector;rounded=0;orthogonalLoop=1;jettySize=auto;html=1;exitX=0;exitY=0.25;exitDx=0;exitDy=0;entryX=0;entryY=0.75;entryDx=0;entryDy=0;labelBackgroundColor=default;strokeColor=#7EA6E0;strokeWidth=3;fontFamily=Helvetica;fontSize=11;fontColor=default;endArrow=none;endFill=0;" edge="1" parent="1" source="VjrMN6myHZ9YJszXmR57-295" target="VjrMN6myHZ9YJszXmR57-293">
          <mxGeometry relative="1" as="geometry" />
        </mxCell>
        <mxCell id="VjrMN6myHZ9YJszXmR57-295" value="" style="rounded=0;whiteSpace=wrap;html=1;fillColor=#7EA6E0;strokeColor=#7EA6E0;movable=1;resizable=1;rotatable=1;deletable=1;editable=1;locked=0;connectable=1;rotation=-240;" vertex="1" parent="1">
          <mxGeometry x="110" y="409.48" width="60" height="28" as="geometry" />
        </mxCell>
        <mxCell id="VjrMN6myHZ9YJszXmR57-296" value="" style="rounded=0;whiteSpace=wrap;html=1;fillColor=#7EA6E0;strokeColor=#7EA6E0;movable=1;resizable=1;rotatable=1;deletable=1;editable=1;locked=0;connectable=1;rotation=-120;" vertex="1" parent="1">
          <mxGeometry x="209.99564434701784" y="409.4792378864669" width="60" height="28" as="geometry" />
        </mxCell>
        <mxCell id="VjrMN6myHZ9YJszXmR57-297" value="" style="rounded=0;whiteSpace=wrap;html=1;fillColor=#7EA6E0;strokeColor=#7EA6E0;movable=1;resizable=1;rotatable=1;deletable=1;editable=1;locked=0;connectable=1;rotation=-420;" vertex="1" parent="1">
          <mxGeometry x="109.99564434701784" y="409.4792378864669" width="60" height="28" as="geometry" />
        </mxCell>
        <mxCell id="VjrMN6myHZ9YJszXmR57-267" value="" style="rounded=0;whiteSpace=wrap;html=1;fillColor=#7EA6E0;strokeColor=#7EA6E0;movable=1;resizable=1;rotatable=1;deletable=1;editable=1;locked=0;connectable=1;rotation=-180;" vertex="1" parent="1">
          <mxGeometry x="259.99564434701784" y="349.99923788646686" width="60" height="28" as="geometry" />
        </mxCell>
        <mxCell id="VjrMN6myHZ9YJszXmR57-268" value="" style="rounded=0;whiteSpace=wrap;html=1;fillColor=#7EA6E0;strokeColor=#7EA6E0;movable=1;resizable=1;rotatable=1;deletable=1;editable=1;locked=0;connectable=1;rotation=-120;" vertex="1" parent="1">
          <mxGeometry x="209.99564434701784" y="409.99923788646686" width="60" height="28" as="geometry" />
        </mxCell>
        <mxCell id="VjrMN6myHZ9YJszXmR57-266" style="edgeStyle=orthogonalEdgeStyle;shape=connector;rounded=0;orthogonalLoop=1;jettySize=auto;html=1;exitX=1;exitY=0.25;exitDx=0;exitDy=0;entryX=1;entryY=0.75;entryDx=0;entryDy=0;labelBackgroundColor=default;strokeColor=#7EA6E0;strokeWidth=3;fontFamily=Helvetica;fontSize=11;fontColor=default;endArrow=none;endFill=0;" edge="1" parent="1" source="VjrMN6myHZ9YJszXmR57-267" target="VjrMN6myHZ9YJszXmR57-268">
          <mxGeometry relative="1" as="geometry" />
        </mxCell>
        <mxCell id="VjrMN6myHZ9YJszXmR57-269" style="edgeStyle=orthogonalEdgeStyle;shape=connector;rounded=0;orthogonalLoop=1;jettySize=auto;html=1;exitX=0;exitY=0.25;exitDx=0;exitDy=0;entryX=0;entryY=0.75;entryDx=0;entryDy=0;labelBackgroundColor=default;strokeColor=#7EA6E0;strokeWidth=3;fontFamily=Helvetica;fontSize=11;fontColor=default;endArrow=none;endFill=0;" edge="1" parent="1" source="VjrMN6myHZ9YJszXmR57-270" target="VjrMN6myHZ9YJszXmR57-268">
          <mxGeometry relative="1" as="geometry" />
        </mxCell>
        <mxCell id="VjrMN6myHZ9YJszXmR57-270" value="" style="rounded=0;whiteSpace=wrap;html=1;fillColor=#7EA6E0;strokeColor=#7EA6E0;movable=1;resizable=1;rotatable=1;deletable=1;editable=1;locked=0;connectable=1;rotation=-420;" vertex="1" parent="1">
          <mxGeometry x="309.99564434701784" y="409.99923788646686" width="60" height="28" as="geometry" />
        </mxCell>
        <mxCell id="VjrMN6myHZ9YJszXmR57-265" style="edgeStyle=orthogonalEdgeStyle;shape=connector;rounded=0;orthogonalLoop=1;jettySize=auto;html=1;exitX=0;exitY=0.25;exitDx=0;exitDy=0;entryX=1;entryY=0.25;entryDx=0;entryDy=0;labelBackgroundColor=default;strokeColor=#7EA6E0;strokeWidth=3;fontFamily=Helvetica;fontSize=11;fontColor=default;endArrow=none;endFill=0;" edge="1" parent="1" source="VjrMN6myHZ9YJszXmR57-267" target="VjrMN6myHZ9YJszXmR57-270">
          <mxGeometry relative="1" as="geometry" />
        </mxCell>
        <mxCell id="VjrMN6myHZ9YJszXmR57-298" value="" style="rounded=0;whiteSpace=wrap;html=1;fillColor=#7EA6E0;strokeColor=#7EA6E0;movable=1;resizable=1;rotatable=1;deletable=1;editable=1;locked=0;connectable=1;rotation=-180;" vertex="1" parent="1">
          <mxGeometry x="359.99564434701784" y="470.99923788646686" width="60" height="28" as="geometry" />
        </mxCell>
        <mxCell id="VjrMN6myHZ9YJszXmR57-299" style="edgeStyle=orthogonalEdgeStyle;shape=connector;rounded=0;orthogonalLoop=1;jettySize=auto;html=1;exitX=1;exitY=0.25;exitDx=0;exitDy=0;entryX=1;entryY=0.75;entryDx=0;entryDy=0;labelBackgroundColor=default;strokeColor=#7EA6E0;strokeWidth=3;fontFamily=Helvetica;fontSize=11;fontColor=default;endArrow=none;endFill=0;" edge="1" parent="1" source="VjrMN6myHZ9YJszXmR57-298">
          <mxGeometry relative="1" as="geometry">
            <mxPoint x="330.99564434701784" y="515.9992378864669" as="targetPoint" />
          </mxGeometry>
        </mxCell>
        <mxCell id="VjrMN6myHZ9YJszXmR57-300" style="edgeStyle=orthogonalEdgeStyle;shape=connector;rounded=0;orthogonalLoop=1;jettySize=auto;html=1;exitX=0;exitY=0.25;exitDx=0;exitDy=0;entryX=1;entryY=0.25;entryDx=0;entryDy=0;labelBackgroundColor=default;strokeColor=#7EA6E0;strokeWidth=3;fontFamily=Helvetica;fontSize=11;fontColor=default;endArrow=none;endFill=0;" edge="1" parent="1" source="VjrMN6myHZ9YJszXmR57-298">
          <mxGeometry relative="1" as="geometry">
            <mxPoint x="448.99564434701784" y="515.9992378864669" as="targetPoint" />
          </mxGeometry>
        </mxCell>
        <mxCell id="VjrMN6myHZ9YJszXmR57-301" style="edgeStyle=orthogonalEdgeStyle;shape=connector;rounded=0;orthogonalLoop=1;jettySize=auto;html=1;exitX=0;exitY=0.75;exitDx=0;exitDy=0;entryX=0;entryY=0.25;entryDx=0;entryDy=0;labelBackgroundColor=default;strokeColor=#7EA6E0;strokeWidth=3;fontFamily=Helvetica;fontSize=11;fontColor=default;endArrow=none;endFill=0;" edge="1" parent="1" source="VjrMN6myHZ9YJszXmR57-298" target="VjrMN6myHZ9YJszXmR57-310">
          <mxGeometry relative="1" as="geometry" />
        </mxCell>
        <mxCell id="VjrMN6myHZ9YJszXmR57-302" style="edgeStyle=orthogonalEdgeStyle;shape=connector;rounded=0;orthogonalLoop=1;jettySize=auto;html=1;exitX=0;exitY=0.25;exitDx=0;exitDy=0;entryX=1;entryY=0.25;entryDx=0;entryDy=0;labelBackgroundColor=default;strokeColor=#7EA6E0;strokeWidth=3;fontFamily=Helvetica;fontSize=11;fontColor=default;endArrow=none;endFill=0;" edge="1" parent="1" source="VjrMN6myHZ9YJszXmR57-304" target="VjrMN6myHZ9YJszXmR57-307">
          <mxGeometry relative="1" as="geometry" />
        </mxCell>
        <mxCell id="VjrMN6myHZ9YJszXmR57-303" style="edgeStyle=orthogonalEdgeStyle;shape=connector;rounded=0;orthogonalLoop=1;jettySize=auto;html=1;exitX=1;exitY=0.25;exitDx=0;exitDy=0;entryX=1;entryY=0.75;entryDx=0;entryDy=0;labelBackgroundColor=default;strokeColor=#7EA6E0;strokeWidth=3;fontFamily=Helvetica;fontSize=11;fontColor=default;endArrow=none;endFill=0;" edge="1" parent="1" source="VjrMN6myHZ9YJszXmR57-304" target="VjrMN6myHZ9YJszXmR57-305">
          <mxGeometry relative="1" as="geometry" />
        </mxCell>
        <mxCell id="VjrMN6myHZ9YJszXmR57-304" value="" style="rounded=0;whiteSpace=wrap;html=1;fillColor=#7EA6E0;strokeColor=#7EA6E0;movable=1;resizable=1;rotatable=1;deletable=1;editable=1;locked=0;connectable=1;rotation=0;" vertex="1" parent="1">
          <mxGeometry x="360" y="470.48" width="60" height="28" as="geometry" />
        </mxCell>
        <mxCell id="VjrMN6myHZ9YJszXmR57-305" value="" style="rounded=0;whiteSpace=wrap;html=1;fillColor=#7EA6E0;strokeColor=#7EA6E0;movable=1;resizable=1;rotatable=1;deletable=1;editable=1;locked=0;connectable=1;rotation=60;" vertex="1" parent="1">
          <mxGeometry x="410" y="410.48" width="60" height="28" as="geometry" />
        </mxCell>
        <mxCell id="VjrMN6myHZ9YJszXmR57-306" style="edgeStyle=orthogonalEdgeStyle;shape=connector;rounded=0;orthogonalLoop=1;jettySize=auto;html=1;exitX=0;exitY=0.25;exitDx=0;exitDy=0;entryX=0;entryY=0.75;entryDx=0;entryDy=0;labelBackgroundColor=default;strokeColor=#7EA6E0;strokeWidth=3;fontFamily=Helvetica;fontSize=11;fontColor=default;endArrow=none;endFill=0;" edge="1" parent="1" source="VjrMN6myHZ9YJszXmR57-307" target="VjrMN6myHZ9YJszXmR57-305">
          <mxGeometry relative="1" as="geometry" />
        </mxCell>
        <mxCell id="VjrMN6myHZ9YJszXmR57-307" value="" style="rounded=0;whiteSpace=wrap;html=1;fillColor=#7EA6E0;strokeColor=#7EA6E0;movable=1;resizable=1;rotatable=1;deletable=1;editable=1;locked=0;connectable=1;rotation=-240;" vertex="1" parent="1">
          <mxGeometry x="310" y="410.48" width="60" height="28" as="geometry" />
        </mxCell>
        <mxCell id="VjrMN6myHZ9YJszXmR57-308" value="" style="rounded=0;whiteSpace=wrap;html=1;fillColor=#7EA6E0;strokeColor=#7EA6E0;movable=1;resizable=1;rotatable=1;deletable=1;editable=1;locked=0;connectable=1;rotation=-120;" vertex="1" parent="1">
          <mxGeometry x="409.99564434701784" y="410.4792378864669" width="60" height="28" as="geometry" />
        </mxCell>
        <mxCell id="VjrMN6myHZ9YJszXmR57-309" value="" style="rounded=0;whiteSpace=wrap;html=1;fillColor=#7EA6E0;strokeColor=#7EA6E0;movable=1;resizable=1;rotatable=1;deletable=1;editable=1;locked=0;connectable=1;rotation=-420;" vertex="1" parent="1">
          <mxGeometry x="309.99564434701784" y="410.4792378864669" width="60" height="28" as="geometry" />
        </mxCell>
        <mxCell id="VjrMN6myHZ9YJszXmR57-310" value="" style="rounded=0;whiteSpace=wrap;html=1;fillColor=#7EA6E0;strokeColor=#7EA6E0;movable=1;resizable=1;rotatable=1;deletable=1;editable=1;locked=0;connectable=1;rotation=-120;" vertex="1" parent="1">
          <mxGeometry x="409.99564434701784" y="410.99923788646686" width="60" height="28" as="geometry" />
        </mxCell>
      </root>
    </mxGraphModel>
  </diagram>
</mxfile>
